<svg width="904" height="126" viewBox="0 0 904 126" fill="none" xmlns="http://www.w3.org/2000/svg">
<g filter="url(#filter0_d_2194_19544)">
<path d="M85.2811 1V111H31.8587L2 51.9043V1H28.719V45.1585L48.0393 85.8509H58.5621V1H85.2811Z" fill="white"/>
<path d="M135.564 1V111H108.845V1H135.564Z" fill="white"/>
<path d="M211.15 55.9922H242.424V110.984H215.705V81.1258H185.846V110.984H159.127V1H185.846V47.6766L212.876 1H243.993L211.15 55.9922Z" fill="white"/>
<path d="M291.122 1V111H264.403V1H291.122Z" fill="white"/>
<path d="M402.691 1V111H372.833L341.404 50.8163V111H314.685V1H344.544L375.972 61.1837V1H402.691Z" fill="white"/>
<path d="M509.537 40.2779H482.818V26.1335H471.036L452.959 66.8259V85.8354H482.818V71.691H471.813V49.6972H509.521V110.984H426.24V60.0801L442.421 26.1335H426.24V1H509.521V40.2779H509.537Z" fill="white"/>
<path d="M616.397 51.9043L586.538 110.984H533.116V85.8509H570.357L589.678 45.1585V26.1491H559.819V78.0016H533.1V1H616.381V51.9043H616.397Z" fill="white"/>
<path d="M636.82 96.8556V15.1444L650.964 1H705.956L720.101 15.1444V96.8556L705.956 111H650.964L636.82 96.8556ZM690.242 85.8509L693.382 82.7112V29.2888L690.242 26.1491H666.679L663.539 29.2888V82.7112L666.679 85.8509H690.242Z" fill="white"/>
<path d="M883.509 111H856.79V26.1335H846.267L826.931 66.8259V110.984H800.212V60.0801L817.341 26.1335H789.689L770.369 66.8259V110.984H743.65V60.0801L760.779 26.1335H743.65V1H883.493V111H883.509Z" fill="white"/>
<path d="M8.5 51.7852V1.5H34.219V45.1585V45.2712L34.2673 45.373L53.5876 86.0654L53.7232 86.3509H54.0393H64.5621H65.0621V85.8509V1.5H90.7811V110.5H38.1663L8.5 51.7852Z" fill="url(#paint0_linear_2194_19544)" stroke="url(#paint1_linear_2194_19544)"/>
<path d="M141.064 1.5V110.5H115.345V1.5H141.064Z" fill="url(#paint2_linear_2194_19544)" stroke="url(#paint3_linear_2194_19544)"/>
<path d="M216.721 55.7359L216.269 56.4922H217.15H247.924V110.484H222.205V81.1258V80.6258H221.705H191.846H191.346V81.1258V110.484H165.627V1.5H191.346V47.6766V49.5377L192.279 47.9271L219.164 1.5H249.112L216.721 55.7359Z" fill="url(#paint4_linear_2194_19544)" stroke="url(#paint5_linear_2194_19544)"/>
<path d="M296.622 1.5V110.5H270.903V1.5H296.622Z" fill="url(#paint6_linear_2194_19544)" stroke="url(#paint7_linear_2194_19544)"/>
<path d="M382.472 61.1837V1.5H408.191V110.5H379.136L347.847 50.5849L346.904 50.8163V110.5H321.185V1.5H350.241L381.529 61.4151L382.472 61.1837Z" fill="url(#paint8_linear_2194_19544)" stroke="url(#paint9_linear_2194_19544)"/>
<path d="M448.421 25.6335H432.74V1.5H515.021V39.7779H489.318V26.1335V25.6335H488.818H477.036H476.711L476.579 25.9305L458.502 66.6229L458.459 66.7199V66.8259V85.8354V86.3354H458.959H488.818H489.318V85.8354V71.691V71.191H488.818H478.313V50.1972H515.021V110.484H432.74V60.1932L448.872 26.3487L449.213 25.6335H448.421Z" fill="url(#paint10_linear_2194_19544)" stroke="url(#paint11_linear_2194_19544)"/>
<path d="M621.881 1.5V51.816L592.23 110.484H539.616V86.3509H576.357H576.674L576.809 86.0654L596.129 45.373L596.178 45.2712V45.1585V26.1491V25.6491H595.678H565.819H565.319V26.1491V77.5016H539.6V1.5H621.881Z" fill="url(#paint12_linear_2194_19544)" stroke="url(#paint13_linear_2194_19544)"/>
<path d="M696.242 86.3509H696.449L696.596 86.2045L699.735 83.0647L699.882 82.9183V82.7112V29.2888V29.0817L699.735 28.9353L696.596 25.7955L696.449 25.6491H696.242H672.679H672.471L672.325 25.7955L669.185 28.9353L669.039 29.0817V29.2888V82.7112V82.9183L669.185 83.0647L672.325 86.2045L672.471 86.3509H672.679H696.242ZM657.171 110.5L643.32 96.6485V15.3515L657.171 1.5H711.749L725.601 15.3515V96.6485L711.749 110.5H657.171Z" fill="url(#paint14_linear_2194_19544)" stroke="url(#paint15_linear_2194_19544)"/>
<path d="M775.869 66.8259V110.484H750.15V60.1991L767.225 26.3588L767.591 25.6335H766.779H750.15V1.5H888.993V110.5H863.29V26.1335V25.6335H862.79H852.267H851.951L851.815 25.9189L832.479 66.6113L832.431 66.7132V66.8259V110.484H806.712V60.1991L823.787 26.3588L824.153 25.6335H823.341H795.689H795.373L795.238 25.9191L775.917 66.6115L775.869 66.7132V66.8259Z" fill="url(#paint16_linear_2194_19544)" stroke="url(#paint17_linear_2194_19544)"/>
</g>
<defs>
<filter id="filter0_d_2194_19544" x="0" y="0" width="903.509" height="126" filterUnits="userSpaceOnUse" color-interpolation-filters="sRGB">
<feFlood flood-opacity="0" result="BackgroundImageFix"/>
<feColorMatrix in="SourceAlpha" type="matrix" values="0 0 0 0 0 0 0 0 0 0 0 0 0 0 0 0 0 0 127 0" result="hardAlpha"/>
<feOffset dx="6" dy="7"/>
<feGaussianBlur stdDeviation="4"/>
<feComposite in2="hardAlpha" operator="out"/>
<feColorMatrix type="matrix" values="0 0 0 0 0 0 0 0 0 0 0 0 0 0 0 0 0 0 0.67 0"/>
<feBlend mode="multiply" in2="BackgroundImageFix" result="effect1_dropShadow_2194_19544"/>
<feBlend mode="normal" in="SourceGraphic" in2="effect1_dropShadow_2194_19544" result="shape"/>
</filter>
<linearGradient id="paint0_linear_2194_19544" x1="49.6405" y1="1" x2="49.6405" y2="111" gradientUnits="userSpaceOnUse">
<stop stop-color="#CC8C00"/>
<stop offset="1" stop-color="#CC8C00" stop-opacity="0"/>
</linearGradient>
<linearGradient id="paint1_linear_2194_19544" x1="49.6405" y1="1" x2="49.6405" y2="111" gradientUnits="userSpaceOnUse">
<stop stop-color="white"/>
<stop offset="1" stop-color="white" stop-opacity="0"/>
</linearGradient>
<linearGradient id="paint2_linear_2194_19544" x1="128.205" y1="1" x2="128.205" y2="111" gradientUnits="userSpaceOnUse">
<stop stop-color="#CC8C00"/>
<stop offset="1" stop-color="#CC8C00" stop-opacity="0"/>
</linearGradient>
<linearGradient id="paint3_linear_2194_19544" x1="128.205" y1="1" x2="128.205" y2="111" gradientUnits="userSpaceOnUse">
<stop stop-color="white"/>
<stop offset="1" stop-color="white" stop-opacity="0"/>
</linearGradient>
<linearGradient id="paint4_linear_2194_19544" x1="207.56" y1="1" x2="207.56" y2="110.984" gradientUnits="userSpaceOnUse">
<stop stop-color="#CC8C00"/>
<stop offset="1" stop-color="#CC8C00" stop-opacity="0"/>
</linearGradient>
<linearGradient id="paint5_linear_2194_19544" x1="207.56" y1="1" x2="207.56" y2="110.984" gradientUnits="userSpaceOnUse">
<stop stop-color="white"/>
<stop offset="1" stop-color="white" stop-opacity="0"/>
</linearGradient>
<linearGradient id="paint6_linear_2194_19544" x1="283.762" y1="1" x2="283.762" y2="111" gradientUnits="userSpaceOnUse">
<stop stop-color="#CC8C00"/>
<stop offset="1" stop-color="#CC8C00" stop-opacity="0"/>
</linearGradient>
<linearGradient id="paint7_linear_2194_19544" x1="283.762" y1="1" x2="283.762" y2="111" gradientUnits="userSpaceOnUse">
<stop stop-color="white"/>
<stop offset="1" stop-color="white" stop-opacity="0"/>
</linearGradient>
<linearGradient id="paint8_linear_2194_19544" x1="364.688" y1="1" x2="364.688" y2="111" gradientUnits="userSpaceOnUse">
<stop stop-color="#CC8C00"/>
<stop offset="1" stop-color="#CC8C00" stop-opacity="0"/>
</linearGradient>
<linearGradient id="paint9_linear_2194_19544" x1="364.688" y1="1" x2="364.688" y2="111" gradientUnits="userSpaceOnUse">
<stop stop-color="white"/>
<stop offset="1" stop-color="white" stop-opacity="0"/>
</linearGradient>
<linearGradient id="paint10_linear_2194_19544" x1="473.889" y1="1" x2="473.889" y2="110.984" gradientUnits="userSpaceOnUse">
<stop stop-color="#CC8C00"/>
<stop offset="1" stop-color="#CC8C00" stop-opacity="0"/>
</linearGradient>
<linearGradient id="paint11_linear_2194_19544" x1="473.889" y1="1" x2="473.889" y2="110.984" gradientUnits="userSpaceOnUse">
<stop stop-color="white"/>
<stop offset="1" stop-color="white" stop-opacity="0"/>
</linearGradient>
<linearGradient id="paint12_linear_2194_19544" x1="580.748" y1="1" x2="580.748" y2="110.984" gradientUnits="userSpaceOnUse">
<stop stop-color="#CC8C00"/>
<stop offset="1" stop-color="#CC8C00" stop-opacity="0"/>
</linearGradient>
<linearGradient id="paint13_linear_2194_19544" x1="580.748" y1="1" x2="580.748" y2="110.984" gradientUnits="userSpaceOnUse">
<stop stop-color="white"/>
<stop offset="1" stop-color="white" stop-opacity="0"/>
</linearGradient>
<linearGradient id="paint14_linear_2194_19544" x1="684.46" y1="1" x2="684.46" y2="111" gradientUnits="userSpaceOnUse">
<stop stop-color="#CC8C00"/>
<stop offset="1" stop-color="#CC8C00" stop-opacity="0"/>
</linearGradient>
<linearGradient id="paint15_linear_2194_19544" x1="684.46" y1="1" x2="684.46" y2="111" gradientUnits="userSpaceOnUse">
<stop stop-color="white"/>
<stop offset="1" stop-color="white" stop-opacity="0"/>
</linearGradient>
<linearGradient id="paint16_linear_2194_19544" x1="819.579" y1="1" x2="819.579" y2="111" gradientUnits="userSpaceOnUse">
<stop stop-color="#CC8C00"/>
<stop offset="1" stop-color="#CC8C00" stop-opacity="0"/>
</linearGradient>
<linearGradient id="paint17_linear_2194_19544" x1="819.579" y1="1" x2="819.579" y2="111" gradientUnits="userSpaceOnUse">
<stop stop-color="white"/>
<stop offset="1" stop-color="white" stop-opacity="0"/>
</linearGradient>
</defs>
</svg>
