<svg width="627" height="628" viewBox="0 0 627 628" fill="none" xmlns="http://www.w3.org/2000/svg">
<g filter="url(#filter0_d_2225_471)">
<path d="M373.11 193.51C388.84 202.06 401.74 215.163 410.074 231.032L552.462 158.804C529.527 114.229 493.604 77.4307 449.664 53.4436L373.11 193.51Z" fill="#DC6602"/>
<path d="M154.131 95.3419L266.988 208.199C276.705 198.749 288.54 191.468 301.707 187.13L256.269 34.0613C217.302 46.0739 182.393 67.3591 154.131 95.3419Z" fill="#E19C07"/>
<path d="M386.302 29.3678L350.011 184.846C357.33 186.508 364.319 189.045 370.852 192.356L447.431 52.2513C428.391 42.1034 407.879 34.3276 386.302 29.3678Z" fill="#E17602"/>
<path d="M337.161 182.905C340.675 183.185 344.138 183.641 347.537 184.313L383.829 28.8223C373.059 26.4629 362.023 24.7885 350.785 23.8625L337.161 182.905Z" fill="#E88504"/>
<path d="M411.228 233.29C417.101 245.277 420.412 258.748 420.412 273.006C420.412 306.887 401.752 336.405 374.163 351.893L448.864 493C526.965 450.708 580 368.054 580 273.019C580 232.782 570.474 194.766 553.59 161.1L411.228 233.315V233.29Z" fill="#D24F01"/>
<path d="M304.129 186.368C312.323 183.92 320.999 182.588 329.993 182.588C331.541 182.588 333.088 182.626 334.623 182.702L348.247 23.6723C342.221 23.241 336.133 23 329.993 23C305.22 23 281.283 26.6279 258.691 33.3382L304.129 186.368Z" fill="#EE9F28"/>
<path d="M371.93 353.098C359.397 359.669 345.139 363.411 329.993 363.411C280.066 363.411 239.588 322.934 239.588 273.006C239.588 248.499 249.356 226.275 265.199 210L152.342 97.1302C107.628 142.301 80 204.419 80 273.006C80 411.081 191.931 523.012 330.006 523.012C372.133 523.012 411.811 512.585 446.631 494.179L371.942 353.098H371.93Z" fill="#CC8C00"/>
</g>
<path d="M277.538 260V250.56H274.578V248.32H282.898V250.56H279.938V260H277.538ZM288.331 260.16C287.553 260.16 286.875 260.016 286.299 259.728C285.723 259.429 285.275 259.019 284.955 258.496C284.646 257.963 284.491 257.344 284.491 256.64V254.56C284.491 253.856 284.646 253.243 284.955 252.72C285.275 252.187 285.723 251.776 286.299 251.488C286.875 251.189 287.553 251.04 288.331 251.04C289.121 251.04 289.798 251.189 290.363 251.488C290.939 251.776 291.382 252.187 291.691 252.72C292.011 253.243 292.171 253.856 292.171 254.56V256.64C292.171 257.344 292.011 257.963 291.691 258.496C291.382 259.019 290.939 259.429 290.363 259.728C289.798 260.016 289.121 260.16 288.331 260.16ZM288.331 258.08C288.801 258.08 289.158 257.957 289.403 257.712C289.649 257.456 289.771 257.099 289.771 256.64V254.56C289.771 254.091 289.649 253.733 289.403 253.488C289.158 253.243 288.801 253.12 288.331 253.12C287.873 253.12 287.515 253.243 287.259 253.488C287.014 253.733 286.891 254.091 286.891 254.56V256.64C286.891 257.099 287.014 257.456 287.259 257.712C287.515 257.957 287.873 258.08 288.331 258.08ZM298.885 260C297.989 260 297.285 259.744 296.773 259.232C296.261 258.72 296.005 258.016 296.005 257.12V253.36H293.685V251.2H296.005V248.72H298.405V251.2H301.685V253.36H298.405V257.12C298.405 257.6 298.645 257.84 299.125 257.84H301.525V260H298.885ZM306.383 260.16C305.497 260.16 304.793 259.92 304.271 259.44C303.759 258.96 303.503 258.309 303.503 257.488C303.503 256.603 303.807 255.925 304.415 255.456C305.033 254.976 305.919 254.736 307.071 254.736H308.895V254.08C308.895 253.739 308.772 253.467 308.527 253.264C308.292 253.061 307.972 252.96 307.567 252.96C307.193 252.96 306.884 253.045 306.639 253.216C306.393 253.387 306.244 253.621 306.191 253.92H303.871C303.967 253.035 304.351 252.336 305.023 251.824C305.705 251.301 306.58 251.04 307.647 251.04C308.767 251.04 309.652 251.317 310.303 251.872C310.964 252.416 311.295 253.152 311.295 254.08V260H308.975V258.56H308.591L308.991 258C308.991 258.661 308.751 259.189 308.271 259.584C307.801 259.968 307.172 260.16 306.383 260.16ZM307.279 258.4C307.748 258.4 308.132 258.277 308.431 258.032C308.74 257.776 308.895 257.445 308.895 257.04V256.096H307.119C306.756 256.096 306.463 256.203 306.239 256.416C306.015 256.619 305.903 256.891 305.903 257.232C305.903 257.595 306.025 257.883 306.271 258.096C306.516 258.299 306.852 258.4 307.279 258.4ZM318.553 260C317.934 260 317.39 259.872 316.921 259.616C316.451 259.349 316.083 258.981 315.817 258.512C315.561 258.043 315.433 257.499 315.433 256.88V250.48H312.713V248.32H317.833V256.88C317.833 257.168 317.918 257.403 318.089 257.584C318.27 257.755 318.505 257.84 318.793 257.84H321.352V260H318.553ZM336.3 260.16C335.479 260.16 334.764 260.021 334.156 259.744C333.548 259.467 333.079 259.077 332.748 258.576C332.417 258.075 332.252 257.483 332.252 256.8H334.652C334.652 257.195 334.801 257.509 335.1 257.744C335.409 257.968 335.825 258.08 336.348 258.08C336.849 258.08 337.239 257.968 337.516 257.744C337.804 257.52 337.948 257.211 337.948 256.816C337.948 256.475 337.841 256.181 337.628 255.936C337.415 255.691 337.116 255.525 336.732 255.44L335.548 255.168C334.556 254.933 333.783 254.501 333.228 253.872C332.684 253.232 332.412 252.453 332.412 251.536C332.412 250.853 332.567 250.261 332.876 249.76C333.196 249.248 333.644 248.853 334.22 248.576C334.796 248.299 335.479 248.16 336.268 248.16C337.463 248.16 338.407 248.459 339.1 249.056C339.804 249.643 340.156 250.437 340.156 251.44H337.756C337.756 251.067 337.623 250.773 337.356 250.56C337.1 250.347 336.727 250.24 336.236 250.24C335.777 250.24 335.425 250.347 335.18 250.56C334.935 250.763 334.812 251.056 334.812 251.44C334.812 251.781 334.908 252.075 335.1 252.32C335.303 252.555 335.585 252.715 335.948 252.8L337.196 253.088C338.231 253.323 339.015 253.749 339.548 254.368C340.081 254.976 340.348 255.755 340.348 256.704C340.348 257.387 340.177 257.989 339.836 258.512C339.505 259.035 339.036 259.44 338.428 259.728C337.831 260.016 337.121 260.16 336.3 260.16ZM345.894 260.16C344.71 260.16 343.782 259.84 343.11 259.2C342.448 258.56 342.118 257.685 342.118 256.576V251.2H344.518V256.56C344.518 257.051 344.635 257.429 344.87 257.696C345.104 257.952 345.446 258.08 345.894 258.08C346.331 258.08 346.667 257.952 346.902 257.696C347.147 257.429 347.27 257.051 347.27 256.56V251.2H349.67V256.576C349.67 257.696 349.334 258.576 348.662 259.216C347.99 259.845 347.067 260.16 345.894 260.16ZM351.743 262.88V251.2H354.064V252.88H354.624L354.064 253.44C354.064 252.683 354.272 252.096 354.688 251.68C355.104 251.253 355.674 251.04 356.4 251.04C357.285 251.04 357.994 251.355 358.528 251.984C359.061 252.603 359.328 253.435 359.328 254.48V256.72C359.328 257.413 359.205 258.021 358.96 258.544C358.725 259.056 358.389 259.456 357.952 259.744C357.514 260.021 356.997 260.16 356.4 260.16C355.674 260.16 355.104 259.952 354.688 259.536C354.272 259.109 354.064 258.517 354.064 257.76L354.624 258.32H354.064L354.144 260.48V262.88H351.743ZM355.536 258.08C355.984 258.08 356.325 257.957 356.56 257.712C356.805 257.456 356.928 257.099 356.928 256.64V254.56C356.928 254.091 356.805 253.733 356.56 253.488C356.325 253.243 355.984 253.12 355.536 253.12C355.098 253.12 354.757 253.248 354.512 253.504C354.266 253.749 354.144 254.101 354.144 254.56V256.64C354.144 257.099 354.266 257.456 354.512 257.712C354.757 257.957 355.098 258.08 355.536 258.08ZM361.337 262.88V251.2H363.657V252.88H364.217L363.657 253.44C363.657 252.683 363.865 252.096 364.281 251.68C364.697 251.253 365.268 251.04 365.993 251.04C366.879 251.04 367.588 251.355 368.121 251.984C368.655 252.603 368.921 253.435 368.921 254.48V256.72C368.921 257.413 368.799 258.021 368.553 258.544C368.319 259.056 367.983 259.456 367.545 259.744C367.108 260.021 366.591 260.16 365.993 260.16C365.268 260.16 364.697 259.952 364.281 259.536C363.865 259.109 363.657 258.517 363.657 257.76L364.217 258.32H363.657L363.737 260.48V262.88H361.337ZM365.129 258.08C365.577 258.08 365.919 257.957 366.153 257.712C366.399 257.456 366.521 257.099 366.521 256.64V254.56C366.521 254.091 366.399 253.733 366.153 253.488C365.919 253.243 365.577 253.12 365.129 253.12C364.692 253.12 364.351 253.248 364.105 253.504C363.86 253.749 363.737 254.101 363.737 254.56V256.64C363.737 257.099 363.86 257.456 364.105 257.712C364.351 257.957 364.692 258.08 365.129 258.08ZM376.115 260C375.496 260 374.952 259.872 374.483 259.616C374.014 259.349 373.646 258.981 373.379 258.512C373.123 258.043 372.995 257.499 372.995 256.88V250.48H370.275V248.32H375.395V256.88C375.395 257.168 375.48 257.403 375.651 257.584C375.832 257.755 376.067 257.84 376.355 257.84H378.915V260H376.115ZM381.981 262.88L383.181 259.568L379.885 251.2H382.493L383.821 255.04C383.917 255.328 384.013 255.68 384.109 256.096C384.215 256.501 384.295 256.832 384.349 257.088C384.402 256.832 384.477 256.501 384.573 256.096C384.679 255.68 384.781 255.328 384.877 255.04L386.157 251.2H388.653L384.493 262.88H381.981ZM270.421 281V278.92H273.365V271.512L270.389 273.72V271.24L273.125 269.32H275.765V278.92H278.101V281H270.421ZM280.974 283.56L282.254 278.584H285.134L283.054 283.56H280.974ZM293.144 281.16C292.355 281.16 291.672 281.016 291.096 280.728C290.52 280.429 290.072 280.019 289.752 279.496C289.443 278.963 289.288 278.344 289.288 277.64V272.68C289.288 271.976 289.443 271.363 289.752 270.84C290.072 270.307 290.52 269.896 291.096 269.608C291.672 269.309 292.349 269.16 293.128 269.16C293.917 269.16 294.595 269.309 295.16 269.608C295.736 269.896 296.179 270.307 296.488 270.84C296.808 271.363 296.968 271.976 296.968 272.68V277.64C296.968 278.344 296.808 278.963 296.488 279.496C296.179 280.019 295.736 280.429 295.16 280.728C294.595 281.016 293.923 281.16 293.144 281.16ZM293.128 279.08C293.629 279.08 294.019 278.952 294.296 278.696C294.584 278.44 294.728 278.088 294.728 277.64V272.68C294.728 272.232 294.584 271.88 294.296 271.624C294.019 271.368 293.629 271.24 293.128 271.24C292.627 271.24 292.232 271.368 291.944 271.624C291.667 271.88 291.528 272.232 291.528 272.68V277.64C291.528 278.088 291.672 278.44 291.96 278.696C292.248 278.952 292.637 279.08 293.128 279.08ZM293.128 276.264C292.797 276.264 292.525 276.157 292.312 275.944C292.109 275.731 292.008 275.453 292.008 275.112C292.008 274.771 292.109 274.499 292.312 274.296C292.525 274.093 292.797 273.992 293.128 273.992C293.469 273.992 293.741 274.093 293.944 274.296C294.147 274.499 294.248 274.771 294.248 275.112C294.248 275.453 294.147 275.731 293.944 275.944C293.741 276.157 293.469 276.264 293.128 276.264ZM302.738 281.16C301.949 281.16 301.266 281.016 300.69 280.728C300.114 280.429 299.666 280.019 299.346 279.496C299.037 278.963 298.882 278.344 298.882 277.64V272.68C298.882 271.976 299.037 271.363 299.346 270.84C299.666 270.307 300.114 269.896 300.69 269.608C301.266 269.309 301.943 269.16 302.722 269.16C303.511 269.16 304.189 269.309 304.754 269.608C305.33 269.896 305.773 270.307 306.082 270.84C306.402 271.363 306.562 271.976 306.562 272.68V277.64C306.562 278.344 306.402 278.963 306.082 279.496C305.773 280.019 305.33 280.429 304.754 280.728C304.189 281.016 303.517 281.16 302.738 281.16ZM302.722 279.08C303.223 279.08 303.613 278.952 303.89 278.696C304.178 278.44 304.322 278.088 304.322 277.64V272.68C304.322 272.232 304.178 271.88 303.89 271.624C303.613 271.368 303.223 271.24 302.722 271.24C302.221 271.24 301.826 271.368 301.538 271.624C301.261 271.88 301.122 272.232 301.122 272.68V277.64C301.122 278.088 301.266 278.44 301.554 278.696C301.842 278.952 302.231 279.08 302.722 279.08ZM302.722 276.264C302.391 276.264 302.119 276.157 301.906 275.944C301.703 275.731 301.602 275.453 301.602 275.112C301.602 274.771 301.703 274.499 301.906 274.296C302.119 274.093 302.391 273.992 302.722 273.992C303.063 273.992 303.335 274.093 303.538 274.296C303.741 274.499 303.842 274.771 303.842 275.112C303.842 275.453 303.741 275.731 303.538 275.944C303.335 276.157 303.063 276.264 302.722 276.264ZM312.332 281.16C311.542 281.16 310.86 281.016 310.284 280.728C309.708 280.429 309.26 280.019 308.94 279.496C308.63 278.963 308.476 278.344 308.476 277.64V272.68C308.476 271.976 308.63 271.363 308.94 270.84C309.26 270.307 309.708 269.896 310.284 269.608C310.86 269.309 311.537 269.16 312.316 269.16C313.105 269.16 313.782 269.309 314.348 269.608C314.924 269.896 315.366 270.307 315.676 270.84C315.996 271.363 316.156 271.976 316.156 272.68V277.64C316.156 278.344 315.996 278.963 315.676 279.496C315.366 280.019 314.924 280.429 314.348 280.728C313.782 281.016 313.11 281.16 312.332 281.16ZM312.316 279.08C312.817 279.08 313.206 278.952 313.484 278.696C313.772 278.44 313.916 278.088 313.916 277.64V272.68C313.916 272.232 313.772 271.88 313.484 271.624C313.206 271.368 312.817 271.24 312.316 271.24C311.814 271.24 311.42 271.368 311.132 271.624C310.854 271.88 310.716 272.232 310.716 272.68V277.64C310.716 278.088 310.86 278.44 311.148 278.696C311.436 278.952 311.825 279.08 312.316 279.08ZM312.316 276.264C311.985 276.264 311.713 276.157 311.5 275.944C311.297 275.731 311.196 275.453 311.196 275.112C311.196 274.771 311.297 274.499 311.5 274.296C311.713 274.093 311.985 273.992 312.316 273.992C312.657 273.992 312.929 274.093 313.132 274.296C313.334 274.499 313.436 274.771 313.436 275.112C313.436 275.453 313.334 275.731 313.132 275.944C312.929 276.157 312.657 276.264 312.316 276.264ZM319.349 283.56L320.629 278.584H323.509L321.429 283.56H319.349ZM331.519 281.16C330.73 281.16 330.047 281.016 329.471 280.728C328.895 280.429 328.447 280.019 328.127 279.496C327.818 278.963 327.663 278.344 327.663 277.64V272.68C327.663 271.976 327.818 271.363 328.127 270.84C328.447 270.307 328.895 269.896 329.471 269.608C330.047 269.309 330.724 269.16 331.503 269.16C332.292 269.16 332.97 269.309 333.535 269.608C334.111 269.896 334.554 270.307 334.863 270.84C335.183 271.363 335.343 271.976 335.343 272.68V277.64C335.343 278.344 335.183 278.963 334.863 279.496C334.554 280.019 334.111 280.429 333.535 280.728C332.97 281.016 332.298 281.16 331.519 281.16ZM331.503 279.08C332.004 279.08 332.394 278.952 332.671 278.696C332.959 278.44 333.103 278.088 333.103 277.64V272.68C333.103 272.232 332.959 271.88 332.671 271.624C332.394 271.368 332.004 271.24 331.503 271.24C331.002 271.24 330.607 271.368 330.319 271.624C330.042 271.88 329.903 272.232 329.903 272.68V277.64C329.903 278.088 330.047 278.44 330.335 278.696C330.623 278.952 331.012 279.08 331.503 279.08ZM331.503 276.264C331.172 276.264 330.9 276.157 330.687 275.944C330.484 275.731 330.383 275.453 330.383 275.112C330.383 274.771 330.484 274.499 330.687 274.296C330.9 274.093 331.172 273.992 331.503 273.992C331.844 273.992 332.116 274.093 332.319 274.296C332.522 274.499 332.623 274.771 332.623 275.112C332.623 275.453 332.522 275.731 332.319 275.944C332.116 276.157 331.844 276.264 331.503 276.264ZM341.113 281.16C340.324 281.16 339.641 281.016 339.065 280.728C338.489 280.429 338.041 280.019 337.721 279.496C337.412 278.963 337.257 278.344 337.257 277.64V272.68C337.257 271.976 337.412 271.363 337.721 270.84C338.041 270.307 338.489 269.896 339.065 269.608C339.641 269.309 340.318 269.16 341.097 269.16C341.886 269.16 342.564 269.309 343.129 269.608C343.705 269.896 344.148 270.307 344.457 270.84C344.777 271.363 344.937 271.976 344.937 272.68V277.64C344.937 278.344 344.777 278.963 344.457 279.496C344.148 280.019 343.705 280.429 343.129 280.728C342.564 281.016 341.892 281.16 341.113 281.16ZM341.097 279.08C341.598 279.08 341.988 278.952 342.265 278.696C342.553 278.44 342.697 278.088 342.697 277.64V272.68C342.697 272.232 342.553 271.88 342.265 271.624C341.988 271.368 341.598 271.24 341.097 271.24C340.596 271.24 340.201 271.368 339.913 271.624C339.636 271.88 339.497 272.232 339.497 272.68V277.64C339.497 278.088 339.641 278.44 339.929 278.696C340.217 278.952 340.606 279.08 341.097 279.08ZM341.097 276.264C340.766 276.264 340.494 276.157 340.281 275.944C340.078 275.731 339.977 275.453 339.977 275.112C339.977 274.771 340.078 274.499 340.281 274.296C340.494 274.093 340.766 273.992 341.097 273.992C341.438 273.992 341.71 274.093 341.913 274.296C342.116 274.499 342.217 274.771 342.217 275.112C342.217 275.453 342.116 275.731 341.913 275.944C341.71 276.157 341.438 276.264 341.097 276.264ZM350.707 281.16C349.917 281.16 349.235 281.016 348.659 280.728C348.083 280.429 347.635 280.019 347.315 279.496C347.005 278.963 346.851 278.344 346.851 277.64V272.68C346.851 271.976 347.005 271.363 347.315 270.84C347.635 270.307 348.083 269.896 348.659 269.608C349.235 269.309 349.912 269.16 350.691 269.16C351.48 269.16 352.157 269.309 352.723 269.608C353.299 269.896 353.741 270.307 354.051 270.84C354.371 271.363 354.531 271.976 354.531 272.68V277.64C354.531 278.344 354.371 278.963 354.051 279.496C353.741 280.019 353.299 280.429 352.723 280.728C352.157 281.016 351.485 281.16 350.707 281.16ZM350.691 279.08C351.192 279.08 351.581 278.952 351.859 278.696C352.147 278.44 352.291 278.088 352.291 277.64V272.68C352.291 272.232 352.147 271.88 351.859 271.624C351.581 271.368 351.192 271.24 350.691 271.24C350.189 271.24 349.795 271.368 349.507 271.624C349.229 271.88 349.091 272.232 349.091 272.68V277.64C349.091 278.088 349.235 278.44 349.523 278.696C349.811 278.952 350.2 279.08 350.691 279.08ZM350.691 276.264C350.36 276.264 350.088 276.157 349.875 275.944C349.672 275.731 349.571 275.453 349.571 275.112C349.571 274.771 349.672 274.499 349.875 274.296C350.088 274.093 350.36 273.992 350.691 273.992C351.032 273.992 351.304 274.093 351.507 274.296C351.709 274.499 351.811 274.771 351.811 275.112C351.811 275.453 351.709 275.731 351.507 275.944C351.304 276.157 351.032 276.264 350.691 276.264ZM357.724 283.56L359.004 278.584H361.884L359.804 283.56H357.724ZM369.894 281.16C369.105 281.16 368.422 281.016 367.846 280.728C367.27 280.429 366.822 280.019 366.502 279.496C366.193 278.963 366.038 278.344 366.038 277.64V272.68C366.038 271.976 366.193 271.363 366.502 270.84C366.822 270.307 367.27 269.896 367.846 269.608C368.422 269.309 369.099 269.16 369.878 269.16C370.667 269.16 371.345 269.309 371.91 269.608C372.486 269.896 372.929 270.307 373.238 270.84C373.558 271.363 373.718 271.976 373.718 272.68V277.64C373.718 278.344 373.558 278.963 373.238 279.496C372.929 280.019 372.486 280.429 371.91 280.728C371.345 281.016 370.673 281.16 369.894 281.16ZM369.878 279.08C370.379 279.08 370.769 278.952 371.046 278.696C371.334 278.44 371.478 278.088 371.478 277.64V272.68C371.478 272.232 371.334 271.88 371.046 271.624C370.769 271.368 370.379 271.24 369.878 271.24C369.377 271.24 368.982 271.368 368.694 271.624C368.417 271.88 368.278 272.232 368.278 272.68V277.64C368.278 278.088 368.422 278.44 368.71 278.696C368.998 278.952 369.387 279.08 369.878 279.08ZM369.878 276.264C369.547 276.264 369.275 276.157 369.062 275.944C368.859 275.731 368.758 275.453 368.758 275.112C368.758 274.771 368.859 274.499 369.062 274.296C369.275 274.093 369.547 273.992 369.878 273.992C370.219 273.992 370.491 274.093 370.694 274.296C370.897 274.499 370.998 274.771 370.998 275.112C370.998 275.453 370.897 275.731 370.694 275.944C370.491 276.157 370.219 276.264 369.878 276.264ZM379.488 281.16C378.699 281.16 378.016 281.016 377.44 280.728C376.864 280.429 376.416 280.019 376.096 279.496C375.787 278.963 375.632 278.344 375.632 277.64V272.68C375.632 271.976 375.787 271.363 376.096 270.84C376.416 270.307 376.864 269.896 377.44 269.608C378.016 269.309 378.693 269.16 379.472 269.16C380.261 269.16 380.939 269.309 381.504 269.608C382.08 269.896 382.523 270.307 382.832 270.84C383.152 271.363 383.312 271.976 383.312 272.68V277.64C383.312 278.344 383.152 278.963 382.832 279.496C382.523 280.019 382.08 280.429 381.504 280.728C380.939 281.016 380.267 281.16 379.488 281.16ZM379.472 279.08C379.973 279.08 380.363 278.952 380.64 278.696C380.928 278.44 381.072 278.088 381.072 277.64V272.68C381.072 272.232 380.928 271.88 380.64 271.624C380.363 271.368 379.973 271.24 379.472 271.24C378.971 271.24 378.576 271.368 378.288 271.624C378.011 271.88 377.872 272.232 377.872 272.68V277.64C377.872 278.088 378.016 278.44 378.304 278.696C378.592 278.952 378.981 279.08 379.472 279.08ZM379.472 276.264C379.141 276.264 378.869 276.157 378.656 275.944C378.453 275.731 378.352 275.453 378.352 275.112C378.352 274.771 378.453 274.499 378.656 274.296C378.869 274.093 379.141 273.992 379.472 273.992C379.813 273.992 380.085 274.093 380.288 274.296C380.491 274.499 380.592 274.771 380.592 275.112C380.592 275.453 380.491 275.731 380.288 275.944C380.085 276.157 379.813 276.264 379.472 276.264ZM389.082 281.16C388.292 281.16 387.61 281.016 387.034 280.728C386.458 280.429 386.01 280.019 385.69 279.496C385.38 278.963 385.226 278.344 385.226 277.64V272.68C385.226 271.976 385.38 271.363 385.69 270.84C386.01 270.307 386.458 269.896 387.034 269.608C387.61 269.309 388.287 269.16 389.066 269.16C389.855 269.16 390.532 269.309 391.098 269.608C391.674 269.896 392.116 270.307 392.426 270.84C392.746 271.363 392.906 271.976 392.906 272.68V277.64C392.906 278.344 392.746 278.963 392.426 279.496C392.116 280.019 391.674 280.429 391.098 280.728C390.532 281.016 389.86 281.16 389.082 281.16ZM389.066 279.08C389.567 279.08 389.956 278.952 390.234 278.696C390.522 278.44 390.666 278.088 390.666 277.64V272.68C390.666 272.232 390.522 271.88 390.234 271.624C389.956 271.368 389.567 271.24 389.066 271.24C388.564 271.24 388.17 271.368 387.882 271.624C387.604 271.88 387.466 272.232 387.466 272.68V277.64C387.466 278.088 387.61 278.44 387.898 278.696C388.186 278.952 388.575 279.08 389.066 279.08ZM389.066 276.264C388.735 276.264 388.463 276.157 388.25 275.944C388.047 275.731 387.946 275.453 387.946 275.112C387.946 274.771 388.047 274.499 388.25 274.296C388.463 274.093 388.735 273.992 389.066 273.992C389.407 273.992 389.679 274.093 389.882 274.296C390.084 274.499 390.186 274.771 390.186 275.112C390.186 275.453 390.084 275.731 389.882 275.944C389.679 276.157 389.407 276.264 389.066 276.264ZM318.149 302V290.32H320.549V294.848H321.685L323.605 290.32H326.213L323.813 295.904L326.309 302H323.669L321.685 297.056H320.549V302H318.149ZM327.375 302V290.32H330.079L331.151 294C331.268 294.384 331.354 294.72 331.407 295.008C331.471 295.296 331.508 295.499 331.519 295.616C331.53 295.499 331.562 295.296 331.615 295.008C331.679 294.72 331.764 294.384 331.871 294L332.927 290.32H335.631V302H333.439V298.8C333.439 298.213 333.45 297.6 333.471 296.96C333.503 296.309 333.54 295.664 333.583 295.024C333.626 294.384 333.674 293.787 333.727 293.232C333.78 292.667 333.828 292.176 333.871 291.76L332.527 297.04H330.495L329.087 291.76C329.14 292.155 329.194 292.629 329.247 293.184C329.3 293.728 329.348 294.32 329.391 294.96C329.444 295.589 329.487 296.235 329.519 296.896C329.551 297.557 329.567 298.192 329.567 298.8V302H327.375ZM339.897 302V292.56H336.937V290.32H345.257V292.56H342.297V302H339.897Z" fill="white"/>
<path d="M205.784 385.178C204.656 385.178 203.741 384.893 203.041 384.323C202.34 383.741 201.948 382.963 201.865 381.989H203.771C203.83 382.464 204.032 382.832 204.377 383.094C204.721 383.355 205.196 383.486 205.802 383.486C206.479 383.486 206.99 383.307 207.334 382.951C207.691 382.583 207.869 382.072 207.869 381.419V380.154C207.869 379.488 207.697 378.978 207.352 378.621C207.008 378.253 206.497 378.069 205.82 378.069C205.392 378.069 205.024 378.17 204.715 378.372C204.407 378.562 204.181 378.829 204.038 379.174H202.132L202.221 371.993H209.312V373.739H204.056L204.02 377.784H204.519L204.003 378.247C204.003 377.689 204.222 377.249 204.662 376.929C205.101 376.608 205.689 376.448 206.426 376.448C207.483 376.448 208.303 376.774 208.885 377.428C209.479 378.069 209.775 378.978 209.775 380.154V381.419C209.775 382.571 209.425 383.486 208.724 384.163C208.023 384.84 207.043 385.178 205.784 385.178ZM216.503 385.178C215.684 385.178 214.971 385.018 214.365 384.697C213.771 384.376 213.308 383.931 212.976 383.361C212.643 382.779 212.477 382.102 212.477 381.33V375.664C212.477 374.88 212.637 374.203 212.958 373.633C213.29 373.062 213.76 372.617 214.365 372.296C214.971 371.976 215.684 371.815 216.503 371.815C217.335 371.815 218.048 371.976 218.642 372.296C219.247 372.617 219.711 373.062 220.031 373.633C220.364 374.203 220.53 374.88 220.53 375.664V381.33C220.53 382.102 220.364 382.779 220.031 383.361C219.699 383.931 219.23 384.376 218.624 384.697C218.03 385.018 217.323 385.178 216.503 385.178ZM216.503 383.521C217.169 383.521 217.697 383.319 218.089 382.915C218.493 382.512 218.695 381.983 218.695 381.33V375.664C218.695 375.01 218.493 374.482 218.089 374.078C217.697 373.674 217.169 373.472 216.503 373.472C215.838 373.472 215.304 373.674 214.9 374.078C214.508 374.482 214.312 375.01 214.312 375.664V381.33C214.312 381.983 214.508 382.512 214.9 382.915C215.304 383.319 215.838 383.521 216.503 383.521ZM216.503 379.601C216.171 379.601 215.898 379.494 215.684 379.281C215.482 379.067 215.381 378.788 215.381 378.443C215.381 378.111 215.482 377.843 215.684 377.641C215.898 377.428 216.171 377.321 216.503 377.321C216.836 377.321 217.103 377.428 217.305 377.641C217.519 377.843 217.626 378.111 217.626 378.443C217.626 378.788 217.519 379.067 217.305 379.281C217.103 379.494 216.836 379.601 216.503 379.601ZM221.931 385L230.964 371.993H232.443L223.41 385H221.931ZM229.753 385.089C228.992 385.089 228.375 384.875 227.9 384.448C227.436 384.008 227.205 383.42 227.205 382.684V381.526C227.205 380.789 227.436 380.207 227.9 379.78C228.375 379.34 228.992 379.12 229.753 379.12C230.501 379.12 231.107 379.34 231.57 379.78C232.045 380.207 232.283 380.789 232.283 381.526V382.684C232.283 383.42 232.045 384.008 231.57 384.448C231.107 384.875 230.501 385.089 229.753 385.089ZM229.753 383.788C230.465 383.788 230.822 383.42 230.822 382.684V381.526C230.822 380.777 230.465 380.403 229.753 380.403C229.028 380.403 228.666 380.777 228.666 381.526V382.684C228.666 383.42 229.028 383.788 229.753 383.788ZM224.621 377.873C223.873 377.873 223.261 377.659 222.786 377.232C222.323 376.804 222.091 376.216 222.091 375.468V374.31C222.091 373.561 222.323 372.973 222.786 372.546C223.261 372.118 223.873 371.904 224.621 371.904C225.37 371.904 225.981 372.118 226.456 372.546C226.932 372.973 227.169 373.561 227.169 374.31V375.468C227.169 376.216 226.932 376.804 226.456 377.232C225.981 377.659 225.37 377.873 224.621 377.873ZM224.621 376.59C225.346 376.59 225.708 376.216 225.708 375.468V374.31C225.708 373.561 225.346 373.187 224.621 373.187C224.277 373.187 224.01 373.282 223.819 373.472C223.641 373.65 223.552 373.929 223.552 374.31V375.468C223.552 375.848 223.641 376.133 223.819 376.323C224.01 376.501 224.277 376.59 224.621 376.59Z" fill="white"/>
<path d="M462.602 325V322.292H456.775V319.405L461.836 311.993H463.974L458.628 319.869V320.563H462.602V317.517H464.508V325H462.602ZM471.503 325.178C470.684 325.178 469.971 325.018 469.365 324.697C468.771 324.376 468.308 323.931 467.976 323.361C467.643 322.779 467.477 322.102 467.477 321.33V315.664C467.477 314.88 467.637 314.203 467.958 313.633C468.29 313.062 468.76 312.617 469.365 312.296C469.971 311.976 470.684 311.815 471.503 311.815C472.335 311.815 473.048 311.976 473.642 312.296C474.247 312.617 474.711 313.062 475.031 313.633C475.364 314.203 475.53 314.88 475.53 315.664V321.33C475.53 322.102 475.364 322.779 475.031 323.361C474.699 323.931 474.23 324.376 473.624 324.697C473.03 325.018 472.323 325.178 471.503 325.178ZM471.503 323.521C472.169 323.521 472.697 323.319 473.089 322.915C473.493 322.512 473.695 321.983 473.695 321.33V315.664C473.695 315.01 473.493 314.482 473.089 314.078C472.697 313.674 472.169 313.472 471.503 313.472C470.838 313.472 470.304 313.674 469.9 314.078C469.508 314.482 469.312 315.01 469.312 315.664V321.33C469.312 321.983 469.508 322.512 469.9 322.915C470.304 323.319 470.838 323.521 471.503 323.521ZM471.503 319.601C471.171 319.601 470.898 319.494 470.684 319.281C470.482 319.067 470.381 318.788 470.381 318.443C470.381 318.111 470.482 317.843 470.684 317.641C470.898 317.428 471.171 317.321 471.503 317.321C471.836 317.321 472.103 317.428 472.305 317.641C472.519 317.843 472.626 318.111 472.626 318.443C472.626 318.788 472.519 319.067 472.305 319.281C472.103 319.494 471.836 319.601 471.503 319.601ZM476.931 325L485.964 311.993H487.443L478.41 325H476.931ZM484.753 325.089C483.992 325.089 483.375 324.875 482.9 324.448C482.436 324.008 482.205 323.42 482.205 322.684V321.526C482.205 320.789 482.436 320.207 482.9 319.78C483.375 319.34 483.992 319.12 484.753 319.12C485.501 319.12 486.107 319.34 486.57 319.78C487.045 320.207 487.283 320.789 487.283 321.526V322.684C487.283 323.42 487.045 324.008 486.57 324.448C486.107 324.875 485.501 325.089 484.753 325.089ZM484.753 323.788C485.465 323.788 485.822 323.42 485.822 322.684V321.526C485.822 320.777 485.465 320.403 484.753 320.403C484.028 320.403 483.666 320.777 483.666 321.526V322.684C483.666 323.42 484.028 323.788 484.753 323.788ZM479.621 317.873C478.873 317.873 478.261 317.659 477.786 317.232C477.323 316.804 477.091 316.216 477.091 315.468V314.31C477.091 313.561 477.323 312.973 477.786 312.546C478.261 312.118 478.873 311.904 479.621 311.904C480.37 311.904 480.981 312.118 481.456 312.546C481.932 312.973 482.169 313.561 482.169 314.31V315.468C482.169 316.216 481.932 316.804 481.456 317.232C480.981 317.659 480.37 317.873 479.621 317.873ZM479.621 316.59C480.346 316.59 480.708 316.216 480.708 315.468V314.31C480.708 313.561 480.346 313.187 479.621 313.187C479.277 313.187 479.01 313.282 478.819 313.472C478.641 313.65 478.552 313.929 478.552 314.31V315.468C478.552 315.848 478.641 316.133 478.819 316.323C479.01 316.501 479.277 316.59 479.621 316.59Z" fill="white"/>
<path d="M446.602 162V159.292H440.775V156.405L445.836 148.993H447.974L442.628 156.869V157.563H446.602V154.517H448.508V162H446.602ZM455.503 162.178C454.684 162.178 453.971 162.018 453.365 161.697C452.771 161.376 452.308 160.931 451.976 160.361C451.643 159.779 451.477 159.102 451.477 158.33V152.664C451.477 151.88 451.637 151.203 451.958 150.633C452.29 150.062 452.76 149.617 453.365 149.296C453.971 148.976 454.684 148.815 455.503 148.815C456.335 148.815 457.048 148.976 457.642 149.296C458.247 149.617 458.711 150.062 459.031 150.633C459.364 151.203 459.53 151.88 459.53 152.664V158.33C459.53 159.102 459.364 159.779 459.031 160.361C458.699 160.931 458.23 161.376 457.624 161.697C457.03 162.018 456.323 162.178 455.503 162.178ZM455.503 160.521C456.169 160.521 456.697 160.319 457.089 159.915C457.493 159.512 457.695 158.983 457.695 158.33V152.664C457.695 152.01 457.493 151.482 457.089 151.078C456.697 150.674 456.169 150.472 455.503 150.472C454.838 150.472 454.304 150.674 453.9 151.078C453.508 151.482 453.312 152.01 453.312 152.664V158.33C453.312 158.983 453.508 159.512 453.9 159.915C454.304 160.319 454.838 160.521 455.503 160.521ZM455.503 156.601C455.171 156.601 454.898 156.494 454.684 156.281C454.482 156.067 454.381 155.788 454.381 155.443C454.381 155.111 454.482 154.843 454.684 154.641C454.898 154.428 455.171 154.321 455.503 154.321C455.836 154.321 456.103 154.428 456.305 154.641C456.519 154.843 456.626 155.111 456.626 155.443C456.626 155.788 456.519 156.067 456.305 156.281C456.103 156.494 455.836 156.601 455.503 156.601ZM460.931 162L469.964 148.993H471.443L462.41 162H460.931ZM468.753 162.089C467.992 162.089 467.375 161.875 466.9 161.448C466.436 161.008 466.205 160.42 466.205 159.684V158.526C466.205 157.789 466.436 157.207 466.9 156.78C467.375 156.34 467.992 156.12 468.753 156.12C469.501 156.12 470.107 156.34 470.57 156.78C471.045 157.207 471.283 157.789 471.283 158.526V159.684C471.283 160.42 471.045 161.008 470.57 161.448C470.107 161.875 469.501 162.089 468.753 162.089ZM468.753 160.788C469.465 160.788 469.822 160.42 469.822 159.684V158.526C469.822 157.777 469.465 157.403 468.753 157.403C468.028 157.403 467.666 157.777 467.666 158.526V159.684C467.666 160.42 468.028 160.788 468.753 160.788ZM463.621 154.873C462.873 154.873 462.261 154.659 461.786 154.232C461.323 153.804 461.091 153.216 461.091 152.468V151.31C461.091 150.561 461.323 149.973 461.786 149.546C462.261 149.118 462.873 148.904 463.621 148.904C464.37 148.904 464.981 149.118 465.456 149.546C465.932 149.973 466.169 150.561 466.169 151.31V152.468C466.169 153.216 465.932 153.804 465.456 154.232C464.981 154.659 464.37 154.873 463.621 154.873ZM463.621 153.59C464.346 153.59 464.708 153.216 464.708 152.468V151.31C464.708 150.561 464.346 150.187 463.621 150.187C463.277 150.187 463.01 150.282 462.819 150.472C462.641 150.65 462.552 150.929 462.552 151.31V152.468C462.552 152.848 462.641 153.133 462.819 153.323C463.01 153.501 463.277 153.59 463.621 153.59Z" fill="white"/>
<path d="M383.025 105V103.29H386.481V93.6682L383.007 96.2517V94.167L385.983 91.9933H388.406V103.29H391.203V105H383.025ZM397.503 105.178C396.684 105.178 395.971 105.018 395.365 104.697C394.771 104.376 394.308 103.931 393.976 103.361C393.643 102.779 393.477 102.102 393.477 101.33V95.6637C393.477 94.8797 393.637 94.2027 393.958 93.6325C394.29 93.0624 394.76 92.6169 395.365 92.2962C395.971 91.9755 396.684 91.8151 397.503 91.8151C398.335 91.8151 399.048 91.9755 399.642 92.2962C400.247 92.6169 400.711 93.0624 401.031 93.6325C401.364 94.2027 401.53 94.8797 401.53 95.6637V101.33C401.53 102.102 401.364 102.779 401.031 103.361C400.699 103.931 400.23 104.376 399.624 104.697C399.03 105.018 398.323 105.178 397.503 105.178ZM397.503 103.521C398.169 103.521 398.697 103.319 399.089 102.915C399.493 102.512 399.695 101.983 399.695 101.33V95.6637C399.695 95.0104 399.493 94.4818 399.089 94.078C398.697 93.6741 398.169 93.4722 397.503 93.4722C396.838 93.4722 396.304 93.6741 395.9 94.078C395.508 94.4818 395.312 95.0104 395.312 95.6637V101.33C395.312 101.983 395.508 102.512 395.9 102.915C396.304 103.319 396.838 103.521 397.503 103.521ZM397.503 99.6013C397.171 99.6013 396.898 99.4944 396.684 99.2806C396.482 99.0668 396.381 98.7877 396.381 98.4432C396.381 98.1106 396.482 97.8434 396.684 97.6414C396.898 97.4276 397.171 97.3207 397.503 97.3207C397.836 97.3207 398.103 97.4276 398.305 97.6414C398.519 97.8434 398.626 98.1106 398.626 98.4432C398.626 98.7877 398.519 99.0668 398.305 99.2806C398.103 99.4944 397.836 99.6013 397.503 99.6013ZM402.931 105L411.964 91.9933H413.443L404.41 105H402.931ZM410.753 105.089C409.992 105.089 409.375 104.875 408.9 104.448C408.436 104.008 408.205 103.42 408.205 102.684V101.526C408.205 100.789 408.436 100.207 408.9 99.7795C409.375 99.34 409.992 99.1203 410.753 99.1203C411.501 99.1203 412.107 99.34 412.57 99.7795C413.045 100.207 413.283 100.789 413.283 101.526V102.684C413.283 103.42 413.045 104.008 412.57 104.448C412.107 104.875 411.501 105.089 410.753 105.089ZM410.753 103.788C411.465 103.788 411.822 103.42 411.822 102.684V101.526C411.822 100.777 411.465 100.403 410.753 100.403C410.028 100.403 409.666 100.777 409.666 101.526V102.684C409.666 103.42 410.028 103.788 410.753 103.788ZM405.621 97.8731C404.873 97.8731 404.261 97.6592 403.786 97.2316C403.323 96.804 403.091 96.216 403.091 95.4677V94.3096C403.091 93.5612 403.323 92.9733 403.786 92.5457C404.261 92.118 404.873 91.9042 405.621 91.9042C406.37 91.9042 406.981 92.118 407.456 92.5457C407.932 92.9733 408.169 93.5612 408.169 94.3096V95.4677C408.169 96.216 407.932 96.804 407.456 97.2316C406.981 97.6592 406.37 97.8731 405.621 97.8731ZM405.621 96.5902C406.346 96.5902 406.708 96.216 406.708 95.4677V94.3096C406.708 93.5612 406.346 93.1871 405.621 93.1871C405.277 93.1871 405.01 93.2821 404.819 93.4722C404.641 93.6503 404.552 93.9295 404.552 94.3096V95.4677C404.552 95.8478 404.641 96.1329 404.819 96.3229C405.01 96.5011 405.277 96.5902 405.621 96.5902Z" fill="white"/>
<path d="M350.831 75V73.0935L354.858 68.9421C355.475 68.3007 355.927 67.7246 356.212 67.2138C356.509 66.6912 356.657 66.1745 356.657 65.6637C356.657 64.9985 356.473 64.4759 356.105 64.0958C355.749 63.7157 355.256 63.5256 354.626 63.5256C353.937 63.5256 353.391 63.7275 352.987 64.1314C352.595 64.5234 352.399 65.0638 352.399 65.7528H350.475C350.498 64.9451 350.683 64.2502 351.027 63.6682C351.371 63.0742 351.853 62.6169 352.47 62.2962C353.088 61.9755 353.812 61.8151 354.644 61.8151C355.44 61.8151 356.135 61.9696 356.729 62.2784C357.322 62.5872 357.78 63.0208 358.101 63.5791C358.421 64.1373 358.582 64.7966 358.582 65.5568C358.582 66.3289 358.38 67.0831 357.976 67.8196C357.584 68.5561 356.936 69.3756 356.034 70.2784L353.094 73.2539H358.778V75H350.831ZM360.089 75L369.122 61.9933H370.601L361.568 75H360.089ZM367.911 75.0891C367.151 75.0891 366.533 74.8753 366.058 74.4477C365.595 74.0082 365.363 73.4202 365.363 72.6837V71.5256C365.363 70.7892 365.595 70.2071 366.058 69.7795C366.533 69.34 367.151 69.1203 367.911 69.1203C368.659 69.1203 369.265 69.34 369.728 69.7795C370.203 70.2071 370.441 70.7892 370.441 71.5256V72.6837C370.441 73.4202 370.203 74.0082 369.728 74.4477C369.265 74.8753 368.659 75.0891 367.911 75.0891ZM367.911 73.7884C368.624 73.7884 368.98 73.4202 368.98 72.6837V71.5256C368.98 70.7773 368.624 70.4031 367.911 70.4031C367.186 70.4031 366.824 70.7773 366.824 71.5256V72.6837C366.824 73.4202 367.186 73.7884 367.911 73.7884ZM362.78 67.8731C362.031 67.8731 361.419 67.6592 360.944 67.2316C360.481 66.804 360.249 66.216 360.249 65.4677V64.3096C360.249 63.5612 360.481 62.9733 360.944 62.5457C361.419 62.118 362.031 61.9042 362.78 61.9042C363.528 61.9042 364.14 62.118 364.615 62.5457C365.09 62.9733 365.327 63.5612 365.327 64.3096V65.4677C365.327 66.216 365.09 66.804 364.615 67.2316C364.14 67.6592 363.528 67.8731 362.78 67.8731ZM362.78 66.5902C363.504 66.5902 363.866 66.216 363.866 65.4677V64.3096C363.866 63.5612 363.504 63.1871 362.78 63.1871C362.435 63.1871 362.168 63.2821 361.978 63.4722C361.8 63.6503 361.71 63.9295 361.71 64.3096V65.4677C361.71 65.8478 361.8 66.1329 361.978 66.3229C362.168 66.5011 362.435 66.5902 362.78 66.5902Z" fill="white"/>
<path d="M298.989 83V81.0935L303.016 76.9421C303.634 76.3007 304.085 75.7246 304.37 75.2138C304.667 74.6912 304.816 74.1745 304.816 73.6637C304.816 72.9985 304.631 72.4759 304.263 72.0958C303.907 71.7157 303.414 71.5256 302.784 71.5256C302.095 71.5256 301.549 71.7275 301.145 72.1314C300.753 72.5234 300.557 73.0638 300.557 73.7528H298.633C298.657 72.9451 298.841 72.2502 299.185 71.6682C299.53 71.0742 300.011 70.6169 300.628 70.2962C301.246 69.9755 301.971 69.8151 302.802 69.8151C303.598 69.8151 304.293 69.9696 304.887 70.2784C305.481 70.5872 305.938 71.0208 306.259 71.5791C306.579 72.1373 306.74 72.7966 306.74 73.5568C306.74 74.3289 306.538 75.0831 306.134 75.8196C305.742 76.5561 305.095 77.3756 304.192 78.2784L301.252 81.2539H306.936V83H298.989ZM309.673 83V81.0935L313.699 76.9421C314.317 76.3007 314.769 75.7246 315.054 75.2138C315.351 74.6912 315.499 74.1745 315.499 73.6637C315.499 72.9985 315.315 72.4759 314.947 72.0958C314.59 71.7157 314.097 71.5256 313.468 71.5256C312.779 71.5256 312.233 71.7275 311.829 72.1314C311.437 72.5234 311.241 73.0638 311.241 73.7528H309.316C309.34 72.9451 309.524 72.2502 309.869 71.6682C310.213 71.0742 310.694 70.6169 311.312 70.2962C311.93 69.9755 312.654 69.8151 313.486 69.8151C314.282 69.8151 314.976 69.9696 315.57 70.2784C316.164 70.5872 316.622 71.0208 316.942 71.5791C317.263 72.1373 317.423 72.7966 317.423 73.5568C317.423 74.3289 317.221 75.0831 316.818 75.8196C316.426 76.5561 315.778 77.3756 314.875 78.2784L311.936 81.2539H317.619V83H309.673ZM318.931 83L327.964 69.9933H329.443L320.41 83H318.931ZM326.753 83.0891C325.992 83.0891 325.375 82.8753 324.9 82.4477C324.436 82.0082 324.205 81.4202 324.205 80.6837V79.5256C324.205 78.7892 324.436 78.2071 324.9 77.7795C325.375 77.34 325.992 77.1203 326.753 77.1203C327.501 77.1203 328.107 77.34 328.57 77.7795C329.045 78.2071 329.283 78.7892 329.283 79.5256V80.6837C329.283 81.4202 329.045 82.0082 328.57 82.4477C328.107 82.8753 327.501 83.0891 326.753 83.0891ZM326.753 81.7884C327.465 81.7884 327.822 81.4202 327.822 80.6837V79.5256C327.822 78.7773 327.465 78.4031 326.753 78.4031C326.028 78.4031 325.666 78.7773 325.666 79.5256V80.6837C325.666 81.4202 326.028 81.7884 326.753 81.7884ZM321.621 75.8731C320.873 75.8731 320.261 75.6592 319.786 75.2316C319.323 74.804 319.091 74.216 319.091 73.4677V72.3096C319.091 71.5612 319.323 70.9733 319.786 70.5457C320.261 70.118 320.873 69.9042 321.621 69.9042C322.37 69.9042 322.981 70.118 323.456 70.5457C323.932 70.9733 324.169 71.5612 324.169 72.3096V73.4677C324.169 74.216 323.932 74.804 323.456 75.2316C322.981 75.6592 322.37 75.8731 321.621 75.8731ZM321.621 74.5902C322.346 74.5902 322.708 74.216 322.708 73.4677V72.3096C322.708 71.5612 322.346 71.1871 321.621 71.1871C321.277 71.1871 321.01 71.2821 320.819 71.4722C320.641 71.6503 320.552 71.9295 320.552 72.3096V73.4677C320.552 73.8478 320.641 74.1329 320.819 74.3229C321.01 74.5011 321.277 74.5902 321.621 74.5902Z" fill="white"/>
<path d="M233.66 121.178C232.84 121.178 232.127 121.024 231.522 120.715C230.916 120.406 230.447 119.973 230.114 119.414C229.793 118.844 229.633 118.185 229.633 117.437H231.557C231.557 118.09 231.741 118.601 232.11 118.969C232.49 119.337 233.012 119.521 233.677 119.521C234.355 119.521 234.877 119.331 235.245 118.951C235.614 118.571 235.798 118.066 235.798 117.437V116.474C235.798 115.809 235.614 115.298 235.245 114.942C234.877 114.574 234.355 114.39 233.677 114.39H232.288V112.572L235.317 109.686H230.185V107.993H237.277V109.811L233.695 113.178V112.715C234.931 112.715 235.911 113.053 236.635 113.731C237.36 114.408 237.722 115.316 237.722 116.457V117.437C237.722 118.185 237.556 118.844 237.223 119.414C236.891 119.973 236.415 120.406 235.798 120.715C235.192 121.024 234.479 121.178 233.66 121.178ZM244.468 121.178C243.339 121.178 242.425 120.893 241.724 120.323C241.023 119.741 240.631 118.963 240.548 117.989H242.454C242.514 118.464 242.716 118.832 243.06 119.094C243.405 119.355 243.88 119.486 244.486 119.486C245.163 119.486 245.673 119.307 246.018 118.951C246.374 118.583 246.552 118.072 246.552 117.419V116.154C246.552 115.488 246.38 114.978 246.036 114.621C245.691 114.253 245.181 114.069 244.503 114.069C244.076 114.069 243.708 114.17 243.399 114.372C243.09 114.562 242.864 114.829 242.722 115.174H240.815L240.904 107.993H247.996V109.739H242.74L242.704 113.784H243.203L242.686 114.247C242.686 113.689 242.906 113.249 243.345 112.929C243.785 112.608 244.373 112.448 245.109 112.448C246.166 112.448 246.986 112.774 247.568 113.428C248.162 114.069 248.459 114.978 248.459 116.154V117.419C248.459 118.571 248.109 119.486 247.408 120.163C246.707 120.84 245.727 121.178 244.468 121.178ZM249.931 121L258.964 107.993H260.443L251.41 121H249.931ZM257.753 121.089C256.992 121.089 256.375 120.875 255.9 120.448C255.436 120.008 255.205 119.42 255.205 118.684V117.526C255.205 116.789 255.436 116.207 255.9 115.78C256.375 115.34 256.992 115.12 257.753 115.12C258.501 115.12 259.107 115.34 259.57 115.78C260.045 116.207 260.283 116.789 260.283 117.526V118.684C260.283 119.42 260.045 120.008 259.57 120.448C259.107 120.875 258.501 121.089 257.753 121.089ZM257.753 119.788C258.465 119.788 258.822 119.42 258.822 118.684V117.526C258.822 116.777 258.465 116.403 257.753 116.403C257.028 116.403 256.666 116.777 256.666 117.526V118.684C256.666 119.42 257.028 119.788 257.753 119.788ZM252.621 113.873C251.873 113.873 251.261 113.659 250.786 113.232C250.323 112.804 250.091 112.216 250.091 111.468V110.31C250.091 109.561 250.323 108.973 250.786 108.546C251.261 108.118 251.873 107.904 252.621 107.904C253.37 107.904 253.981 108.118 254.456 108.546C254.932 108.973 255.169 109.561 255.169 110.31V111.468C255.169 112.216 254.932 112.804 254.456 113.232C253.981 113.659 253.37 113.873 252.621 113.873ZM252.621 112.59C253.346 112.59 253.708 112.216 253.708 111.468V110.31C253.708 109.561 253.346 109.187 252.621 109.187C252.277 109.187 252.01 109.282 251.819 109.472C251.641 109.65 251.552 109.929 251.552 110.31V111.468C251.552 111.848 251.641 112.133 251.819 112.323C252.01 112.501 252.277 112.59 252.621 112.59Z" fill="white"/>
<defs>
<filter id="filter0_d_2225_471" x="0.0853271" y="0.167236" width="626.849" height="626.861" filterUnits="userSpaceOnUse" color-interpolation-filters="sRGB">
<feFlood flood-opacity="0" result="BackgroundImageFix"/>
<feColorMatrix in="SourceAlpha" type="matrix" values="0 0 0 0 0 0 0 0 0 0 0 0 0 0 0 0 0 0 127 0" result="hardAlpha"/>
<feOffset dx="-16.4903" dy="40.5916"/>
<feGaussianBlur stdDeviation="31.7122"/>
<feComposite in2="hardAlpha" operator="out"/>
<feColorMatrix type="matrix" values="0 0 0 0 0 0 0 0 0 0 0 0 0 0 0 0 0 0 0.2 0"/>
<feBlend mode="multiply" in2="BackgroundImageFix" result="effect1_dropShadow_2225_471"/>
<feBlend mode="normal" in="SourceGraphic" in2="effect1_dropShadow_2225_471" result="shape"/>
</filter>
</defs>
</svg>
